<?xml version="1.0" encoding="UTF-8" standalone="no" ?>
<!DOCTYPE svg PUBLIC "-//W3C//DTD SVG 1.1//EN" "http://www.w3.org/Graphics/SVG/1.1/DTD/svg11.dtd">
<svg xmlns="http://www.w3.org/2000/svg" xmlns:xlink="http://www.w3.org/1999/xlink" version="1.1" width="1080" height="1080" viewBox="0 0 1080 1080" xml:space="preserve">
<desc>Created with Fabric.js 5.2.4</desc>
<defs>
</defs>
<rect x="0" y="0" width="100%" height="100%" fill="transparent"></rect>
<g transform="matrix(1 0 0 1 540 540)" id="fac74e40-c233-4e17-b5e8-ac4d84fac7b4"  >
<rect style="stroke: none; stroke-width: 1; stroke-dasharray: none; stroke-linecap: butt; stroke-dashoffset: 0; stroke-linejoin: miter; stroke-miterlimit: 4; fill: rgb(255,255,255); fill-rule: nonzero; opacity: 1; visibility: hidden;" vector-effect="non-scaling-stroke"  x="-540" y="-540" rx="0" ry="0" width="1080" height="1080" />
</g>
<g transform="matrix(1 0 0 1 540 540)" id="db17f1e3-6b26-4401-9c31-3cf4de842863"  >
</g>
<g transform="matrix(25 0 0 25 540 539.99)"  >
<path style="stroke: none; stroke-width: 1; stroke-dasharray: none; stroke-linecap: butt; stroke-dashoffset: 0; stroke-linejoin: miter; stroke-miterlimit: 4; fill: rgb(101,154,210); fill-rule: nonzero; opacity: 1;" vector-effect="non-scaling-stroke"  transform=" translate(-16, -16)" d="M 29 10.232 C 29.009610512584207 9.796071944734726 28.89963132677747 9.365838903402722 28.682 8.988 C 28.453655865923302 8.617028575775533 28.13056853294077 8.313616432942581 27.745999999999995 8.109 Q 22.552 5.241 17.353 2.376 C 16.50087840933992 1.8633743197579764 15.433088137376593 1.8726493709802425 14.59 2.4000000000000012 C 13.212 3.179 6.3149999999999995 6.965 4.259 8.106 C 3.4600285735172642 8.507331691345788 2.9682011602293326 9.337461360318667 3 10.231000000000002 L 3 21.77 C 2.989897549260548 22.19609064075617 3.0934455042146682 22.617185657569593 3.2999999999999994 22.99 C 3.5296617081003174 23.3716380774626 3.8596418763694134 23.682940122999483 4.254 23.889999999999997 C 6.31 25.031 13.208 28.816999999999997 14.586 29.595999999999997 C 15.42871057807633 30.123968153096115 16.496503105677213 30.134016146479258 17.349 29.621999999999996 Q 22.539 26.750999999999998 27.735 23.888999999999996 C 28.129426589424394 23.681669106925625 28.45966468083746 23.37044996318556 28.689999999999998 22.988999999999997 C 28.89655449578533 22.61618565756959 29.00010245073945 22.19509064075617 28.99 21.769 L 28.99 10.232" stroke-linecap="round" />
</g>
<g transform="matrix(25 0 0 25 702.47 540.01)"  >
<path style="stroke: none; stroke-width: 1; stroke-dasharray: none; stroke-linecap: butt; stroke-dashoffset: 0; stroke-linejoin: miter; stroke-miterlimit: 4; fill: rgb(0,89,156); fill-rule: nonzero; opacity: 1;" vector-effect="non-scaling-stroke"  transform=" translate(-22.5, -16)" d="M 28.549 23.171 C 28.60130335172882 23.113077408298423 28.650377634304522 23.05231877272851 28.695999999999998 22.989 C 28.90255449578533 22.616185657569595 29.00610245073945 22.195090640756174 28.996 21.769000000000002 L 28.996 10.232 C 29.005610512584205 9.796071944734726 28.89563132677747 9.365838903402722 28.677999999999997 8.988 C 28.641999999999996 8.929 28.589 8.883 28.548 8.828 L 16 16 Z" stroke-linecap="round" />
</g>
<g transform="matrix(25 0 0 25 540.01 715.03)"  >
<path style="stroke: none; stroke-width: 1; stroke-dasharray: none; stroke-linecap: butt; stroke-dashoffset: 0; stroke-linejoin: miter; stroke-miterlimit: 4; fill: rgb(0,68,130); fill-rule: nonzero; opacity: 1;" vector-effect="non-scaling-stroke"  transform=" translate(-16, -23)" d="M 28.549 23.171 L 16 16 L 3.451 23.171 C 3.6631994365764613 23.468686202477922 3.9397042240709466 23.714772045489084 4.259999999999999 23.891 C 6.316 25.031999999999996 13.214 28.817999999999998 14.592 29.596999999999998 C 15.43471057807633 30.12496815309612 16.502503105677214 30.13501614647926 17.355 29.622999999999998 Q 22.545 26.752 27.741 23.889999999999997 C 28.06092792983879 23.714077512344254 28.337101461717744 23.468324084843058 28.549 23.171 Z" stroke-linecap="round" />
</g>
<g transform="matrix(25 0 0 25 526.4 540.07)"  >
<path style="stroke: none; stroke-width: 1; stroke-dasharray: none; stroke-linecap: butt; stroke-dashoffset: 0; stroke-linejoin: miter; stroke-miterlimit: 4; fill: rgb(255,255,255); fill-rule: nonzero; opacity: 1;" vector-effect="non-scaling-stroke"  transform=" translate(-15.46, -16)" d="M 19.6 18.02 C 18.684018777742505 19.648949725671557 16.786554475378306 20.45759741336493 14.9771402999365 19.99013709418903 C 13.167726124494694 19.522676775013135 11.899387429363713 17.896147090072915 11.887041670704567 16.027365029334714 C 11.874695912045421 14.158582968596516 13.121434113325986 12.515437899217073 14.924514249265547 12.024112312997548 C 16.72759438520511 11.532786726778024 18.635576964028797 12.31629444241559 19.573 13.932999999999998 L 23.188000000000002 11.86 C 21.301784828271533 8.622981403927529 17.48259768879167 7.04862730967962 13.863194473997916 8.016107249584458 C 10.24379125920416 8.983587189489295 7.7195141568485415 12.253572866975768 7.699999999999999 15.999999999999995 C 7.698194789550818 17.445193985992002 8.077624552943961 18.865296109527975 8.8 20.117000000000004 C 10.288810529988714 22.690168107772042 13.037575463412152 24.273305318322365 16.010408894097377 24.26979840219429 C 18.9832423247826 24.26629148606622 21.72826450348715 22.676673505208065 23.211 20.1 L 19.6 18.02" stroke-linecap="round" />
</g>
<g transform="matrix(NaN NaN NaN NaN 0 0)"  >
<g style=""   >
</g>
</g>
</svg>